<svg xmlns="http://www.w3.org/2000/svg" width="29.676" height="29.787" viewBox="0 0 29.676 29.787">
  <g id="Component_25_1" data-name="Component 25 – 1" transform="translate(0.5 0.611)">
    <path id="Path_36052" data-name="Path 36052" d="M28.676,14.938a2.908,2.908,0,0,1-.99,1.485,2.559,2.559,0,0,1-1.729.532c-.267-.016-.314.077-.313.322q.013,4.093,0,8.187a3.082,3.082,0,0,1-2.378,3.124,3.269,3.269,0,0,1-.805.089q-2.189,0-4.377,0a.867.867,0,0,1-.963-.973c0-2.149-.023-4.3.01-6.448a1.5,1.5,0,0,0-1.6-1.6c-.785.027-1.571,0-2.357.006A1.423,1.423,0,0,0,11.6,21.22q0,3.21,0,6.42c0,.726-.312,1.035-1.042,1.035q-2.133,0-4.265,0a3.088,3.088,0,0,1-3.216-3.206q-.005-4.093.007-8.187c0-.278-.075-.33-.338-.328A2.626,2.626,0,0,1,0,14.182,2.548,2.548,0,0,1,.636,12.6c.079-.092.165-.179.251-.265Q6.631,6.6,12.375.858a3.072,3.072,0,0,1,.8-.608A2.8,2.8,0,0,1,16.2.7c.4.423.819.82,1.23,1.23q5.209,5.2,10.42,10.405a3.383,3.383,0,0,1,.83,1.368Z" transform="translate(0 -0.001)" fill="#c8d2e2" stroke="#c8d2e2" stroke-width="1"/>
    <path id="Path_36053" data-name="Path 36053" d="M32.876,48.983q0-2.384,0-4.769a.907.907,0,0,0-1.027-1.03H30.721a.99.99,0,0,1-.709-1.71c.474-.48.954-.954,1.431-1.431L41.914,29.58a1.042,1.042,0,0,1,1.732.009Q49.506,35.444,55.367,41.3a1.119,1.119,0,0,1,.432,1.2.961.961,0,0,1-.9.687c-.414.01-.829,0-1.244,0a.891.891,0,0,0-.981.987q0,4.725,0,9.451a1.474,1.474,0,0,1-1.64,1.641c-1.138,0-2.275-.006-3.413.005-.214,0-.272-.046-.271-.267q.015-2.876,0-5.751a3.172,3.172,0,0,0-2.539-3.207,2.449,2.449,0,0,0-.487-.06,32.655,32.655,0,0,0-3.266.02,3.112,3.112,0,0,0-2.86,3.088c-.026,1.955-.014,3.911,0,5.867,0,.26-.067.314-.317.311-1.147-.014-2.295-.005-3.442-.007a1.456,1.456,0,0,1-1.565-1.569q0-2.355,0-4.711" transform="translate(-28.416 -27.873)" fill="#c8d2e2" stroke="#c8d2e2" stroke-width="0.5"/>
  </g>
</svg>
